<svg version="1.0" xmlns="http://www.w3.org/2000/svg"
     width="64.000000pt" height="64.000000pt" viewBox="0 0 64.000000 64.000000"
     preserveAspectRatio="xMidYMid meet">
    <rect height="64px" width="64" fill="white"/>
    <g transform="translate(0.000000,64.000000) scale(0.100000,-0.100000)"
       fill="white" stroke="">
        <path fill="#000000" d="M0 320 l0 -320 320 0 320 0 0 320 0 320 -320 0 -320 0 0 -320z m260
120 l0 -60 60 0 60 0 0 60 0 60 60 0 60 0 0 -60 0 -60 -60 0 -60 0 0 -60 0
-60 60 0 60 0 0 -60 0 -60 -60 0 -60 0 0 60 0 60 -60 0 -60 0 0 -60 0 -60 -60
0 -60 0 0 60 0 60 60 0 60 0 0 60 0 60 -60 0 -60 0 0 60 0 60 60 0 60 0 0 -60z"/>
    </g>
</svg>
